<?xml version="1.0" standalone="no"?>
<!DOCTYPE svg PUBLIC "-//W3C//DTD SVG 20010904//EN"
 "http://www.w3.org/TR/2001/REC-SVG-20010904/DTD/svg10.dtd">
<svg version="1.0" xmlns="http://www.w3.org/2000/svg"
 width="296.000000pt" height="321.000000pt" viewBox="0 0 296.000000 321.000000"
 preserveAspectRatio="xMidYMid meet">

<g transform="translate(0.000000,321.000000) scale(0.100000,-0.100000)"
fill="#000000" stroke="none">
<path d="M1600 3064 c1 -5 26 -25 57 -44 30 -19 74 -57 98 -85 44 -51 90 -133
81 -142 -2 -3 -33 4 -68 15 -176 58 -482 109 -517 87 -7 -4 23 -30 76 -65 87
-58 233 -176 233 -189 0 -4 -73 -8 -162 -9 -168 -2 -313 -19 -313 -37 0 -5 34
-28 76 -50 86 -45 219 -127 219 -135 0 -3 -38 -15 -85 -27 -102 -26 -248 -84
-247 -98 0 -5 45 -26 99 -46 190 -70 216 -86 174 -108 -41 -22 -201 -231 -201
-263 0 -7 38 -8 121 -3 102 6 120 5 113 -6 -4 -8 -23 -35 -41 -60 -37 -53 -83
-146 -83 -171 0 -16 12 -18 105 -18 58 0 105 -2 105 -5 0 -7 -105 -132 -131
-158 -29 -28 -23 -35 39 -53 31 -9 82 -28 112 -42 l55 -25 -30 -7 c-16 -4 -66
-8 -111 -9 -44 0 -83 -4 -86 -7 -3 -3 14 -41 38 -85 48 -87 53 -103 27 -95
-44 13 -205 38 -210 33 -3 -4 0 -41 7 -84 7 -43 15 -93 17 -111 l5 -33 -101
50 c-55 28 -102 51 -105 51 -2 0 -11 -42 -21 -92 -10 -51 -22 -98 -27 -105
-15 -19 -128 13 -162 46 -48 48 -40 90 48 266 88 176 115 259 123 375 4 68 1
102 -15 168 -29 113 -70 182 -164 274 -54 53 -74 79 -65 85 6 4 42 22 80 40
37 18 67 36 67 41 0 12 -156 84 -254 116 -43 14 -122 35 -175 46 -98 19 -271
37 -271 27 0 -3 15 -27 33 -53 43 -64 163 -306 233 -469 31 -71 60 -134 64
-139 10 -10 25 20 71 142 35 95 41 96 83 2 20 -43 27 -76 27 -122 1 -111 -17
-145 -223 -413 -57 -75 -109 -178 -139 -275 -34 -109 -32 -255 4 -365 77 -231
235 -394 469 -485 167 -65 355 -79 547 -41 57 11 108 18 112 15 5 -3 9 -16 9
-30 l0 -24 610 0 c336 0 610 3 610 6 0 3 -13 34 -30 68 -53 113 -137 174 -247
181 -29 2 -57 6 -62 9 -6 4 4 32 24 70 150 272 129 588 -58 868 -31 46 -93
128 -139 182 -172 205 -233 300 -269 419 -26 83 -23 191 6 252 28 57 100 129
122 122 74 -24 252 -103 271 -120 13 -12 31 -48 40 -81 l16 -59 81 6 c45 3
100 13 123 22 48 19 102 76 102 106 0 19 -6 20 -60 18 -74 -3 -88 7 -66 49 14
28 14 32 1 46 -12 12 -21 13 -40 4 -36 -16 -74 -3 -80 30 -10 45 -20 57 -54
60 -28 3 -31 6 -31 38 0 37 5 39 63 23 28 -8 42 -19 54 -45 20 -42 32 -43 58
-4 11 16 23 30 27 30 4 0 23 -16 42 -35 43 -42 64 -45 68 -8 5 48 31 38 61
-22 15 -30 33 -55 41 -55 7 0 26 18 41 40 31 45 40 47 74 21 38 -29 51 -17 51
46 0 139 -40 196 -190 271 -3 1 -12 -14 -19 -34 -11 -29 -17 -35 -34 -30 -12
3 -46 11 -75 17 -51 12 -53 14 -79 71 -47 105 -139 160 -295 178 -74 9 -80 11
-141 63 -81 69 -184 130 -264 156 -70 23 -173 38 -173 25z m698 -437 c64 -65
57 -79 -28 -53 -47 14 -57 29 -46 72 9 34 26 30 74 -19z m-567 -1800 c84 -41
143 -98 181 -175 29 -59 33 -76 33 -147 0 -61 -6 -91 -22 -127 -12 -27 -26
-48 -31 -48 -5 0 -12 36 -15 81 -10 147 -90 262 -213 309 -104 38 -258 24
-376 -36 -61 -31 -64 -30 -37 7 39 54 88 98 142 125 78 40 94 43 192 41 75 -2
99 -6 146 -30z"/>
</g>
</svg>
